<?xml version="1.0" encoding="utf-8"?>
<svg version="1.1" xmlns:xlink="http://www.w3.org/1999/xlink" width="170px" height="70px" xmlns="http://www.w3.org/2000/svg">
  <defs>
    <filter x="20px" y="300px" width="170px" height="70px" filterUnits="userSpaceOnUse" id="filter377">
      <feOffset dx="5" dy="5" in="SourceAlpha" result="shadowOffsetInner" />
      <feGaussianBlur stdDeviation="2.5" in="shadowOffsetInner" result="shadowGaussian" />
      <feComposite in2="shadowGaussian" operator="atop" in="SourceAlpha" result="shadowComposite" />
      <feColorMatrix type="matrix" values="0 0 0 0 0.666666666666667  0 0 0 0 0.666666666666667  0 0 0 0 0.666666666666667  0 0 0 0.349019607843137 0  " in="shadowComposite" />
    </filter>
    <g id="widget378">
      <path d="M 21 307  A 6 6 0 0 1 27 301 L 173 301  A 6 6 0 0 1 179 307 L 179 353  A 6 6 0 0 1 173 359 L 27 359  A 6 6 0 0 1 21 353 L 21 307  Z " fill-rule="nonzero" fill="#d7d7d7" stroke="none" />
      <path d="M 20.5 307  A 6.5 6.5 0 0 1 27 300.5 L 173 300.5  A 6.5 6.5 0 0 1 179.5 307 L 179.5 353  A 6.5 6.5 0 0 1 173 359.5 L 27 359.5  A 6.5 6.5 0 0 1 20.5 353 L 20.5 307  Z " stroke-width="1" stroke="#f2f2f2" fill="none" stroke-opacity="0.349019607843137" />
    </g>
  </defs>
  <g transform="matrix(1 0 0 1 -20 -300 )">
    <use xlink:href="#widget378" filter="url(#filter377)" />
    <use xlink:href="#widget378" />
  </g>
</svg>