<?xml version="1.0" encoding="utf-8"?>
<svg version="1.1" xmlns:xlink="http://www.w3.org/1999/xlink" width="170px" height="70px" xmlns="http://www.w3.org/2000/svg">
  <defs>
    <filter x="1220px" y="300px" width="170px" height="70px" filterUnits="userSpaceOnUse" id="filter383">
      <feOffset dx="5" dy="5" in="SourceAlpha" result="shadowOffsetInner" />
      <feGaussianBlur stdDeviation="2.5" in="shadowOffsetInner" result="shadowGaussian" />
      <feComposite in2="shadowGaussian" operator="atop" in="SourceAlpha" result="shadowComposite" />
      <feColorMatrix type="matrix" values="0 0 0 0 0.00784313725490196  0 0 0 0 0.490196078431373  0 0 0 0 0.705882352941176  0 0 0 0.349019607843137 0  " in="shadowComposite" />
    </filter>
    <g id="widget384">
      <path d="M 1221 307  A 6 6 0 0 1 1227 301 L 1373 301  A 6 6 0 0 1 1379 307 L 1379 353  A 6 6 0 0 1 1373 359 L 1227 359  A 6 6 0 0 1 1221 353 L 1221 307  Z " fill-rule="nonzero" fill="#81d3f8" stroke="none" />
      <path d="M 1220.5 307  A 6.5 6.5 0 0 1 1227 300.5 L 1373 300.5  A 6.5 6.5 0 0 1 1379.5 307 L 1379.5 353  A 6.5 6.5 0 0 1 1373 359.5 L 1227 359.5  A 6.5 6.5 0 0 1 1220.5 353 L 1220.5 307  Z " stroke-width="1" stroke="#f2f2f2" fill="none" stroke-opacity="0.349019607843137" />
    </g>
  </defs>
  <g transform="matrix(1 0 0 1 -1220 -300 )">
    <use xlink:href="#widget384" filter="url(#filter383)" />
    <use xlink:href="#widget384" />
  </g>
</svg>