<?xml version="1.0" encoding="utf-8"?>
<svg version="1.1" xmlns:xlink="http://www.w3.org/1999/xlink" width="170px" height="70px" xmlns="http://www.w3.org/2000/svg">
  <defs>
    <filter x="1220px" y="400px" width="170px" height="70px" filterUnits="userSpaceOnUse" id="filter385">
      <feOffset dx="5" dy="5" in="SourceAlpha" result="shadowOffsetInner" />
      <feGaussianBlur stdDeviation="2.5" in="shadowOffsetInner" result="shadowGaussian" />
      <feComposite in2="shadowGaussian" operator="atop" in="SourceAlpha" result="shadowComposite" />
      <feColorMatrix type="matrix" values="0 0 0 0 0.00784313725490196  0 0 0 0 0.490196078431373  0 0 0 0 0.705882352941176  0 0 0 0.349019607843137 0  " in="shadowComposite" />
    </filter>
    <g id="widget386">
      <path d="M 1221 407  A 6 6 0 0 1 1227 401 L 1373 401  A 6 6 0 0 1 1379 407 L 1379 453  A 6 6 0 0 1 1373 459 L 1227 459  A 6 6 0 0 1 1221 453 L 1221 407  Z " fill-rule="nonzero" fill="#ffff80" stroke="none" />
      <path d="M 1220.5 407  A 6.5 6.5 0 0 1 1227 400.5 L 1373 400.5  A 6.5 6.5 0 0 1 1379.5 407 L 1379.5 453  A 6.5 6.5 0 0 1 1373 459.5 L 1227 459.5  A 6.5 6.5 0 0 1 1220.5 453 L 1220.5 407  Z " stroke-width="1" stroke="#f2f2f2" fill="none" stroke-opacity="0.349019607843137" />
    </g>
  </defs>
  <g transform="matrix(1 0 0 1 -1220 -400 )">
    <use xlink:href="#widget386" filter="url(#filter385)" />
    <use xlink:href="#widget386" />
  </g>
</svg>