<?xml version="1.0" encoding="utf-8"?>
<svg version="1.1" xmlns:xlink="http://www.w3.org/1999/xlink" width="170px" height="70px" xmlns="http://www.w3.org/2000/svg">
  <defs>
    <filter x="1660px" y="300px" width="170px" height="70px" filterUnits="userSpaceOnUse" id="filter387">
      <feOffset dx="5" dy="5" in="SourceAlpha" result="shadowOffsetInner" />
      <feGaussianBlur stdDeviation="2.5" in="shadowOffsetInner" result="shadowGaussian" />
      <feComposite in2="shadowGaussian" operator="atop" in="SourceAlpha" result="shadowComposite" />
      <feColorMatrix type="matrix" values="0 0 0 0 0.501960784313725  0 0 0 0 1  0 0 0 0 1  0 0 0 0.349019607843137 0  " in="shadowComposite" />
    </filter>
    <g id="widget388">
      <path d="M 1661 307  A 6 6 0 0 1 1667 301 L 1813 301  A 6 6 0 0 1 1819 307 L 1819 353  A 6 6 0 0 1 1813 359 L 1667 359  A 6 6 0 0 1 1661 353 L 1661 307  Z " fill-rule="nonzero" fill="#81d3f8" stroke="none" />
      <path d="M 1660.5 307  A 6.5 6.5 0 0 1 1667 300.5 L 1813 300.5  A 6.5 6.5 0 0 1 1819.5 307 L 1819.5 353  A 6.5 6.5 0 0 1 1813 359.5 L 1667 359.5  A 6.5 6.5 0 0 1 1660.5 353 L 1660.5 307  Z " stroke-width="1" stroke="#f2f2f2" fill="none" stroke-opacity="0.349019607843137" />
    </g>
  </defs>
  <g transform="matrix(1 0 0 1 -1660 -300 )">
    <use xlink:href="#widget388" filter="url(#filter387)" />
    <use xlink:href="#widget388" />
  </g>
</svg>