<?xml version="1.0" encoding="utf-8"?>
<svg version="1.1" xmlns:xlink="http://www.w3.org/1999/xlink" width="170px" height="70px" xmlns="http://www.w3.org/2000/svg">
  <defs>
    <filter x="1860px" y="300px" width="170px" height="70px" filterUnits="userSpaceOnUse" id="filter389">
      <feOffset dx="5" dy="5" in="SourceAlpha" result="shadowOffsetInner" />
      <feGaussianBlur stdDeviation="2.5" in="shadowOffsetInner" result="shadowGaussian" />
      <feComposite in2="shadowGaussian" operator="atop" in="SourceAlpha" result="shadowComposite" />
      <feColorMatrix type="matrix" values="0 0 0 0 0  0 0 0 0 0  0 0 0 0 0  0 0 0 0.349019607843137 0  " in="shadowComposite" />
    </filter>
    <g id="widget390">
      <path d="M 1861 307  A 6 6 0 0 1 1867 301 L 2013 301  A 6 6 0 0 1 2019 307 L 2019 353  A 6 6 0 0 1 2013 359 L 1867 359  A 6 6 0 0 1 1861 353 L 1861 307  Z " fill-rule="nonzero" fill="#7f7f7f" stroke="none" />
      <path d="M 1860.5 307  A 6.5 6.5 0 0 1 1867 300.5 L 2013 300.5  A 6.5 6.5 0 0 1 2019.5 307 L 2019.5 353  A 6.5 6.5 0 0 1 2013 359.5 L 1867 359.5  A 6.5 6.5 0 0 1 1860.5 353 L 1860.5 307  Z " stroke-width="1" stroke="#f2f2f2" fill="none" stroke-opacity="0.349019607843137" />
    </g>
  </defs>
  <g transform="matrix(1 0 0 1 -1860 -300 )">
    <use xlink:href="#widget390" filter="url(#filter389)" />
    <use xlink:href="#widget390" />
  </g>
</svg>