<?xml version="1.0" encoding="utf-8"?>
<svg version="1.1" xmlns:xlink="http://www.w3.org/1999/xlink" width="170px" height="70px" xmlns="http://www.w3.org/2000/svg">
  <defs>
    <filter x="3460px" y="300px" width="170px" height="70px" filterUnits="userSpaceOnUse" id="filter391">
      <feOffset dx="5" dy="5" in="SourceAlpha" result="shadowOffsetInner" />
      <feGaussianBlur stdDeviation="2.5" in="shadowOffsetInner" result="shadowGaussian" />
      <feComposite in2="shadowGaussian" operator="atop" in="SourceAlpha" result="shadowComposite" />
      <feColorMatrix type="matrix" values="0 0 0 0 0.333333333333333  0 0 0 0 0.333333333333333  0 0 0 0 0.333333333333333  0 0 0 0.349019607843137 0  " in="shadowComposite" />
    </filter>
    <g id="widget392">
      <path d="M 3461 307  A 6 6 0 0 1 3467 301 L 3613 301  A 6 6 0 0 1 3619 307 L 3619 353  A 6 6 0 0 1 3613 359 L 3467 359  A 6 6 0 0 1 3461 353 L 3461 307  Z " fill-rule="nonzero" fill="#7f7f7f" stroke="none" />
      <path d="M 3460.5 307  A 6.5 6.5 0 0 1 3467 300.5 L 3613 300.5  A 6.5 6.5 0 0 1 3619.5 307 L 3619.5 353  A 6.5 6.5 0 0 1 3613 359.5 L 3467 359.5  A 6.5 6.5 0 0 1 3460.5 353 L 3460.5 307  Z " stroke-width="1" stroke="#f2f2f2" fill="none" stroke-opacity="0.349019607843137" />
    </g>
  </defs>
  <g transform="matrix(1 0 0 1 -3460 -300 )">
    <use xlink:href="#widget392" filter="url(#filter391)" />
    <use xlink:href="#widget392" />
  </g>
</svg>