<?xml version="1.0" encoding="utf-8"?>
<svg version="1.1" xmlns:xlink="http://www.w3.org/1999/xlink" width="170px" height="70px" xmlns="http://www.w3.org/2000/svg">
  <defs>
    <filter x="420px" y="300px" width="170px" height="70px" filterUnits="userSpaceOnUse" id="filter381">
      <feOffset dx="5" dy="5" in="SourceAlpha" result="shadowOffsetInner" />
      <feGaussianBlur stdDeviation="2.5" in="shadowOffsetInner" result="shadowGaussian" />
      <feComposite in2="shadowGaussian" operator="atop" in="SourceAlpha" result="shadowComposite" />
      <feColorMatrix type="matrix" values="0 0 0 0 0  0 0 0 0 0  0 0 0 0 0  0 0 0 0.349019607843137 0  " in="shadowComposite" />
    </filter>
    <g id="widget382">
      <path d="M 421 307  A 6 6 0 0 1 427 301 L 573 301  A 6 6 0 0 1 579 307 L 579 353  A 6 6 0 0 1 573 359 L 427 359  A 6 6 0 0 1 421 353 L 421 307  Z " fill-rule="nonzero" fill="#d7d7d7" stroke="none" />
      <path d="M 420.5 307  A 6.5 6.5 0 0 1 427 300.5 L 573 300.5  A 6.5 6.5 0 0 1 579.5 307 L 579.5 353  A 6.5 6.5 0 0 1 573 359.5 L 427 359.5  A 6.5 6.5 0 0 1 420.5 353 L 420.5 307  Z " stroke-width="1" stroke="#f2f2f2" fill="none" stroke-opacity="0.349019607843137" />
    </g>
  </defs>
  <g transform="matrix(1 0 0 1 -420 -300 )">
    <use xlink:href="#widget382" filter="url(#filter381)" />
    <use xlink:href="#widget382" />
  </g>
</svg>